<svg width="20" height="20" viewBox="0 0 20 20" fill="none" xmlns="http://www.w3.org/2000/svg">
<g id="16*16/&#229;&#161;&#171;&#229;&#133;&#133;/&#232;&#128;&#151;&#230;&#157;&#144;">
<g id="Group 427318525">
<rect id="Rectangle 828" x="1.5" y="7.5" width="17" height="11" rx="2" stroke="#ffffff"/>
<circle id="Ellipse 87" cx="14" cy="13" r="1.5" stroke="#ffffff"/>
<path id="Subtract" fill-rule="evenodd" clip-rule="evenodd" d="M8.0022 7.00015L10.866 2.03988C11.1422 1.56159 11.7537 1.39772 12.232 1.67386L15.6961 3.67386C16.1744 3.95 16.3383 4.56159 16.0622 5.03988L14.9304 7.00015H16.0851L16.9282 5.53988C17.4805 4.5833 17.1527 3.36012 16.1961 2.80783L12.732 0.807834C11.7755 0.255549 10.5523 0.583299 9.99999 1.53988L6.8475 7.00015H8.0022Z" fill="#ffffff"/>
<path id="Subtract_2" fill-rule="evenodd" clip-rule="evenodd" d="M6.05412 2.79978L4.92862 7.00022H3.89334L5.0882 2.54096C5.37408 1.47403 6.47075 0.840867 7.53769 1.12675L10.1704 1.83219C10.1083 1.90996 10.0513 1.99335 9.99999 2.08216L9.63017 2.72271L7.27887 2.09268C6.7454 1.94973 6.19706 2.26632 6.05412 2.79978Z" fill="#ffffff"/>
</g>
</g>
</svg>
