<svg width="20" height="20" viewBox="0 0 20 20" fill="none" xmlns="http://www.w3.org/2000/svg">
<g id="16*16/&#229;&#161;&#171;&#229;&#133;&#133;/&#231;&#155;&#152;&#231;&#130;&#185;">
<g id="Group 427318527">
<rect id="Rectangle 833" x="6" y="1.5" width="8" height="4" rx="1.5" stroke="#ffffff"/>
<path id="Subtract" fill-rule="evenodd" clip-rule="evenodd" d="M5.5 3H4.5C2.84315 3 1.5 4.34315 1.5 6V16C1.5 17.6569 2.84315 19 4.5 19H15.5C17.1569 19 18.5 17.6569 18.5 16V6C18.5 4.34315 17.1569 3 15.5 3H14.5V4H15.5C16.6046 4 17.5 4.89543 17.5 6V16C17.5 17.1046 16.6046 18 15.5 18H4.5C3.39543 18 2.5 17.1046 2.5 16V6C2.5 4.89543 3.39543 4 4.5 4H5.5V3Z" fill="#ffffff"/>
<path id="Union" fill-rule="evenodd" clip-rule="evenodd" d="M12.9368 11.7998C12.9368 13.4407 11.579 14.7998 9.86838 14.7998C8.15771 14.7998 6.8 13.4407 6.8 11.7998C6.8 10.1589 8.15771 8.7998 9.86838 8.7998C11.579 8.7998 12.9368 10.1589 12.9368 11.7998ZM12.4425 14.8975C11.7413 15.4615 10.845 15.7998 9.86838 15.7998C7.62148 15.7998 5.8 14.0089 5.8 11.7998C5.8 9.59067 7.62148 7.7998 9.86838 7.7998C12.1153 7.7998 13.9368 9.59067 13.9368 11.7998C13.9368 12.6913 13.6401 13.5147 13.1386 14.1797L14.2115 15.2346C14.4085 15.4282 14.4085 15.7421 14.2115 15.9357C14.0146 16.1293 13.6954 16.1293 13.4985 15.9357L12.4425 14.8975Z" fill="#ffffff"/>
</g>
</g>
</svg>
