<svg width="20" height="20" viewBox="0 0 20 20" fill="none" xmlns="http://www.w3.org/2000/svg">
<g id="16*16/&#229;&#161;&#171;&#229;&#133;&#133;/&#233;&#135;&#135;&#232;&#180;&#173;" clip-path="url(#clip0_2964_226741)">
<g id="Group 148">
<path id="Rectangle 578" d="M4.97311 6.5H15.0269C16.3151 6.5 17.3924 7.47891 17.5155 8.76126L18.187 15.7613C18.3279 17.2296 17.1735 18.5 15.6984 18.5H4.30158C2.82654 18.5 1.67214 17.2296 1.813 15.7613L2.48454 8.76126C2.60756 7.47891 3.68488 6.5 4.97311 6.5Z" stroke="#ffffff"/>
<path id="Ellipse 72" d="M7 12.5C7.34387 13.9377 8.55665 15 10 15C11.4434 15 12.6561 13.9377 13 12.5" stroke="#ffffff" stroke-linecap="round"/>
<path id="Rectangle 853" d="M14 5.5V6.5H6V5.5C6 3.29086 7.79086 1.5 10 1.5C12.2091 1.5 14 3.29086 14 5.5Z" stroke="#ffffff"/>
</g>
</g>
<defs>
<clipPath id="clip0_2964_226741">
<rect width="20" height="20" fill="white"/>
</clipPath>
</defs>
</svg>
