<svg width="20" height="20" viewBox="0 0 20 20" fill="none" xmlns="http://www.w3.org/2000/svg">
<g id="16*16/&#229;&#161;&#171;&#229;&#133;&#133;/&#231;&#179;&#187;&#231;&#187;&#159;">
<g id="Group 427318550">
<rect id="Rectangle 578" x="1.5" y="1.5" width="17" height="17" rx="2.5" stroke="#ffffff"/>
<path id="Union" fill-rule="evenodd" clip-rule="evenodd" d="M6.5 4.5C6.5 4.22386 6.72386 4 7 4C7.27614 4 7.5 4.22386 7.5 4.5V6.58535C8.0826 6.79127 8.5 7.34689 8.5 8C8.5 8.65311 8.0826 9.20873 7.5 9.41465V15.5C7.5 15.7761 7.27614 16 7 16C6.72386 16 6.5 15.7761 6.5 15.5V9.41465C5.9174 9.20873 5.5 8.65311 5.5 8C5.5 7.34689 5.9174 6.79127 6.5 6.58535V4.5ZM7.5 8C7.5 8.27614 7.27614 8.5 7 8.5C6.72386 8.5 6.5 8.27614 6.5 8C6.5 7.72386 6.72386 7.5 7 7.5C7.27614 7.5 7.5 7.72386 7.5 8Z" fill="#ffffff"/>
<path id="Union_2" fill-rule="evenodd" clip-rule="evenodd" d="M12.5 15.5C12.5 15.7761 12.7239 16 13 16C13.2761 16 13.5 15.7761 13.5 15.5V13.4146C14.0826 13.2087 14.5 12.6531 14.5 12C14.5 11.3469 14.0826 10.7913 13.5 10.5854V4.5C13.5 4.22386 13.2761 4 13 4C12.7239 4 12.5 4.22386 12.5 4.5V10.5854C11.9174 10.7913 11.5 11.3469 11.5 12C11.5 12.6531 11.9174 13.2087 12.5 13.4146V15.5ZM13.5 12C13.5 11.7239 13.2761 11.5 13 11.5C12.7239 11.5 12.5 11.7239 12.5 12C12.5 12.2761 12.7239 12.5 13 12.5C13.2761 12.5 13.5 12.2761 13.5 12Z" fill="#ffffff"/>
</g>
</g>
</svg>
