<svg width="20" height="20" viewBox="0 0 20 20" fill="none" xmlns="http://www.w3.org/2000/svg">
<g id="16*16/&#229;&#161;&#171;&#229;&#133;&#133;/&#229;&#183;&#165;&#228;&#189;&#156;&#229;&#143;&#176;">
<g id="Group 150">
<rect id="Rectangle 578" x="1.5" y="1.5" width="17" height="13.5" rx="2.5" stroke="#ffffff"/>
<g id="&#231;&#159;&#169;&#229;&#189;&#162;">
<mask id="path-2-inside-1_2964_226731" fill="white">
<path d="M2 10.5H18V11.5H2V10.5Z"/>
</mask>
<path d="M2 10.5H18V11.5H2V10.5Z" fill="#ffffff"/>
<path d="M2 10.5V9.5H1V10.5H2ZM18 10.5H19V9.5H18V10.5ZM18 11.5V12.5H19V11.5H18ZM2 11.5H1V12.5H2V11.5ZM2 11.5H18V9.5H2V11.5ZM17 10.5V11.5H19V10.5H17ZM18 10.5H2V12.5H18V10.5ZM3 11.5V10.5H1V11.5H3Z" fill="#ffffff" mask="url(#path-2-inside-1_2964_226731)"/>
</g>
<g id="&#231;&#159;&#169;&#229;&#189;&#162;_2">
<mask id="path-4-inside-2_2964_226731" fill="white">
<path d="M9 13C9 12.7239 9.22386 12.5 9.5 12.5H10.5C10.7761 12.5 11 12.7239 11 13V13C11 13.2761 10.7761 13.5 10.5 13.5H9.5C9.22386 13.5 9 13.2761 9 13V13Z"/>
</mask>
<path d="M9 13C9 12.7239 9.22386 12.5 9.5 12.5H10.5C10.7761 12.5 11 12.7239 11 13V13C11 13.2761 10.7761 13.5 10.5 13.5H9.5C9.22386 13.5 9 13.2761 9 13V13Z" fill="#ffffff"/>
<path d="M9.5 13.5H10.5V11.5H9.5V13.5ZM10.5 12.5H9.5V14.5H10.5V12.5ZM9.5 12.5C9.77614 12.5 10 12.7239 10 13H8C8 13.8284 8.67157 14.5 9.5 14.5V12.5ZM10 13C10 12.7239 10.2239 12.5 10.5 12.5V14.5C11.3284 14.5 12 13.8284 12 13H10ZM10.5 13.5C10.2239 13.5 10 13.2761 10 13H12C12 12.1716 11.3284 11.5 10.5 11.5V13.5ZM9.5 11.5C8.67157 11.5 8 12.1716 8 13H10C10 13.2761 9.77614 13.5 9.5 13.5V11.5Z" fill="#ffffff" mask="url(#path-4-inside-2_2964_226731)"/>
</g>
<rect id="&#231;&#159;&#169;&#229;&#189;&#162;_3" x="3.25" y="18.25" width="13.5" height="0.5" rx="0.25" fill="#ffffff" stroke="#ffffff" stroke-width="0.5"/>
<rect id="&#231;&#159;&#169;&#229;&#189;&#162;_4" x="7.25" y="15.75" width="0.5" height="2" fill="#ffffff" stroke="#fffff" stroke-width="0.5"/>
<rect id="&#231;&#159;&#169;&#229;&#189;&#162;&#229;&#164;&#135;&#228;&#187;&#189; 14" x="12.25" y="15.75" width="0.5" height="2" fill="#ffffff" stroke="#ffffff" stroke-width="0.5"/>
</g>
</g>
</svg>
