<?xml version="1.0" standalone="no"?><!DOCTYPE svg PUBLIC "-//W3C//DTD SVG 1.1//EN" "http://www.w3.org/Graphics/SVG/1.1/DTD/svg11.dtd"><svg t="1672842901473" class="icon" viewBox="0 0 1024 1024" version="1.1" xmlns="http://www.w3.org/2000/svg" p-id="3843" xmlns:xlink="http://www.w3.org/1999/xlink" width="200" height="200"><path d="M423.741793 317.793103m70.62069 0l459.034483 0q70.62069 0 70.620689 70.62069l0 564.965517q0 70.62069-70.620689 70.62069l-459.034483 0q-70.62069 0-70.62069-70.62069l0-564.965517q0-70.62069 70.62069-70.62069Z" fill="#ffffff" opacity=".2" p-id="3844"></path><path d="M17.672828 953.37931a17.655172 17.655172 0 0 1-17.655173-17.655172v-70.62069a88.275862 88.275862 0 0 1 31.549793-67.636965 17.284414 17.284414 0 0 1 3.425104-3.019035l215.693241-145.496276A88.399448 88.399448 0 0 1 317.810759 617.931034a88.381793 88.381793 0 0 1 88.275862 88.275863 88.275862 88.275862 0 0 1-28.248276 64.741517L340.020966 812.137931h244.012137l207.713104-207.677793a17.513931 17.513931 0 0 1 4.166621-3.10731 88.275862 88.275862 0 0 1 54.289655-18.732138 88.61131 88.61131 0 0 1 84.179862 61.598896 17.655172 17.655172 0 0 1-2.418759 21.963035l-280.893793 280.893793a17.655172 17.655172 0 0 1-7.379862 4.413793A17.655172 17.655172 0 0 1 635.603862 953.37931z m612.369655-35.310344l268.570483-268.570483a53.142069 53.142069 0 0 0-48.463449-31.602759 52.788966 52.788966 0 0 0-35.151448 13.34731v-0.105931l-209.513931 209.478621a17.655172 17.655172 0 0 1-13.912276 6.779586H300.155586a17.655172 17.655172 0 0 1-17.655172-17.655172 17.655172 17.655172 0 0 1 1.306483-6.673655 17.796414 17.796414 0 0 1 4.096-6.444138l65.324137-70.62069v-0.512a53.089103 53.089103 0 0 0 17.655173-39.388689 53.053793 53.053793 0 0 0-52.965517-52.965518 52.806621 52.806621 0 0 0-37.552552 15.607173 17.655172 17.655172 0 0 1-5.296552 6.373517l-1.271172 1.765517-9.851586 5.649655-208.984276 140.976552a16.772414 16.772414 0 0 1-1.765518 1.024v0.847448a53.106759 53.106759 0 0 0-17.655172 38.523587v53.936551z" fill="#ffffff" p-id="3845"></path><path d="M70.638345 688.551724v-406.068965h35.310345v406.068965a17.655172 17.655172 0 0 1-17.655173 17.655173 17.655172 17.655172 0 0 1-17.655172-17.655173z m741.517241-158.896552v-459.034482a35.310345 35.310345 0 0 0-35.310345-35.310345h-635.586207a35.310345 35.310345 0 0 0-35.310344 35.310345v70.620689h-35.310345v-70.620689a70.726621 70.726621 0 0 1 70.620689-70.62069h635.586207a70.62069 70.62069 0 0 1 70.62069 70.62069v459.034482a17.655172 17.655172 0 0 1-17.655172 17.655173 17.655172 17.655172 0 0 1-17.655173-17.655173z" fill="#ffffff" p-id="3846"></path><path d="M423.741793 141.241379m17.655173 0l211.862068 0q17.655172 0 17.655173 17.655173l0 0q0 17.655172-17.655173 17.655172l-211.862068 0q-17.655172 0-17.655173-17.655172l0 0q0-17.655172 17.655173-17.655173Z" fill="#ffffff" p-id="3847"></path><path d="M229.534897 282.482759m17.655172 0l406.068965 0q17.655172 0 17.655173 17.655172l0 0q0 17.655172-17.655173 17.655172l-406.068965 0q-17.655172 0-17.655172-17.655172l0 0q0-17.655172 17.655172-17.655172Z" fill="#ffffff" p-id="3848"></path><path d="M317.810759 423.724138m17.655172 0l317.793103 0q17.655172 0 17.655173 17.655172l0 0q0 17.655172-17.655173 17.655173l-317.793103 0q-17.655172 0-17.655172-17.655173l0 0q0-17.655172 17.655172-17.655172Z" fill="#ffffff" p-id="3849"></path><path d="M70.638345 176.551724m17.655172 0l0 0q17.655172 0 17.655173 17.655173l0 35.310344q0 17.655172-17.655173 17.655173l0 0q-17.655172 0-17.655172-17.655173l0-35.310344q0-17.655172 17.655172-17.655173Z" fill="#ffffff" p-id="3850"></path><path d="M88.293517 141.241379m-17.655172 0a17.655172 17.655172 0 1 0 35.310345 0 17.655172 17.655172 0 1 0-35.310345 0Z" fill="#ffffff" p-id="3851"></path><path d="M88.293517 282.482759m-17.655172 0a17.655172 17.655172 0 1 0 35.310345 0 17.655172 17.655172 0 1 0-35.310345 0Z" fill="#ffffff" p-id="3852"></path></svg>