<svg width="20" height="20" viewBox="0 0 20 20" fill="none" xmlns="http://www.w3.org/2000/svg">
<g id="16*16/&#229;&#161;&#171;&#229;&#133;&#133;/&#231;&#164;&#188;&#229;&#147;&#129;">
<g id="Group 427318522">
<rect id="Rectangle 810" x="1.5" y="5.5" width="17" height="5" rx="1.5" stroke="#ffffff"/>
<path id="Rectangle 816" d="M3 10.5H17V16C17 17.3807 15.8807 18.5 14.5 18.5H5.5C4.11929 18.5 3 17.3807 3 16V10.5Z" stroke="#ffffff"/>
<g id="Group 427318545">
<path id="Rectangle 813" d="M6.8403 1.99344L10.3034 5.5H6.51332C5.905 5.5 5.32101 5.25181 4.89373 4.80937L4.47675 4.37759C3.83595 3.71405 3.84191 2.64955 4.48989 1.99344C5.13966 1.33552 6.19053 1.33552 6.8403 1.99344Z" stroke="#ffffff"/>
<path id="Rectangle 814" d="M13.4867 5.5H9.69655L13.1597 1.99344C13.8095 1.33552 14.8603 1.33552 15.5101 1.99344C16.1581 2.64955 16.164 3.71405 15.5233 4.37759L15.1063 4.80937C14.679 5.25181 14.095 5.5 13.4867 5.5Z" stroke="#ffffff"/>
</g>
<rect id="Rectangle 811" x="9.75" y="10.25" width="0.5" height="8.5" fill="#ffffff" stroke="#ffffff" stroke-width="0.5"/>
</g>
</g>
</svg>
