<svg width="20" height="20" viewBox="0 0 20 20" fill="none" xmlns="http://www.w3.org/2000/svg">
<g id="16*16/&#229;&#161;&#171;&#229;&#133;&#133;/&#230;&#142;&#165;&#229;&#143;&#163;">
<g id="Group 427318521">
<path id="Rectangle 805" d="M4 2.5H16C17.3807 2.5 18.5 3.61929 18.5 5V12.0046C18.5 12.7097 18.2022 13.3821 17.68 13.856L14.3789 16.8514C13.9189 17.2688 13.32 17.5 12.6989 17.5H7.30109C6.67997 17.5 6.08109 17.2688 5.62111 16.8514L2.32003 13.856C1.79781 13.3821 1.5 12.7097 1.5 12.0046V5C1.5 3.61929 2.61929 2.5 4 2.5Z" stroke="#222943"/>
<g id="Frame 427320199">
<rect id="Rectangle 806" x="5" y="6" width="1" height="6" rx="0.5" fill="#222943"/>
<rect id="Rectangle 807" x="8" y="6" width="1" height="6" rx="0.5" fill="#222943"/>
<rect id="Rectangle 808" x="11" y="6" width="1" height="6" rx="0.5" fill="#222943"/>
<rect id="Rectangle 809" x="14" y="6" width="1" height="6" rx="0.5" fill="#222943"/>
</g>
</g>
</g>
</svg>
