<svg width="20" height="20" viewBox="0 0 20 20" fill="none" xmlns="http://www.w3.org/2000/svg">
<g id="16*16/&#229;&#161;&#171;&#229;&#133;&#133;/&#232;&#174;&#190;&#231;&#189;&#174;">
<g id="Group 153">
<path id="Vector" d="M12.1024 18.2512C11.9558 18.0803 11.6524 17.777 11.2914 17.5119C10.9518 17.2626 10.4583 16.9689 9.95386 16.9689C9.4823 16.9689 9.01013 17.2337 8.67321 17.4698C8.3152 17.7207 7.99917 18.0192 7.81904 18.2251L7.81715 18.2273C7.62545 18.4491 7.2483 18.5286 7.00009 18.4144L6.98934 18.4092L4.82443 17.1238C4.5834 16.9321 4.47756 16.5468 4.61053 16.2286L4.61058 16.2287L4.61343 16.2215L4.6138 16.2206C4.62526 16.1922 4.83878 15.6626 4.83878 15.1586C4.83878 13.6397 3.66529 12.356 2.16299 12.356H2.086C1.99348 12.356 1.76749 12.2693 1.68055 11.7824L1.68058 11.7824L1.67949 11.7766C1.67951 11.7768 1.67949 11.7767 1.67943 11.7763C1.67921 11.7751 1.6785 11.7712 1.6772 11.7639L1.67078 11.727C1.66541 11.6956 1.65803 11.6515 1.64934 11.5968C1.63195 11.4874 1.60941 11.3368 1.58712 11.1629C1.54206 10.8113 1.5 10.38 1.5 10.006C1.5 9.63141 1.54207 9.19969 1.58713 8.84791C1.60942 8.67388 1.63196 8.52309 1.64935 8.41358C1.65804 8.35888 1.66542 8.31466 1.6708 8.28322L1.67724 8.24617C1.67865 8.2382 1.6794 8.23406 1.67958 8.2331L1.67962 8.23291L1.67964 8.23291L1.68054 8.22789C1.76841 7.73605 1.99724 7.65495 2.07202 7.65495H2.16299C3.66534 7.65495 4.83878 6.37119 4.83878 4.852C4.83878 4.58296 4.77992 4.31773 4.72806 4.13226C4.70122 4.03628 4.67415 3.95435 4.65305 3.89449C4.64246 3.86445 4.63328 3.8397 4.62626 3.82124L4.61747 3.79847C4.61531 3.79295 4.61331 3.78793 4.61345 3.78829L4.61354 3.78825L4.60969 3.77906C4.47658 3.46153 4.58619 3.06911 4.83631 2.87882L4.84718 2.87149L7.13884 1.54274C7.38687 1.44262 7.75128 1.52358 7.94254 1.73636L7.94343 1.73735C8.08791 1.89723 8.3863 2.18302 8.74083 2.43304C9.07434 2.66825 9.55648 2.94402 10.0461 2.94402C10.5298 2.94402 11.0086 2.67373 11.3403 2.44322C11.6928 2.19818 11.9907 1.91776 12.1351 1.76008L12.1368 1.75823C12.3278 1.54769 12.7045 1.46939 12.9517 1.57684L12.9602 1.58127L15.174 2.88572C15.417 3.07983 15.5217 3.46596 15.3892 3.78144L15.3864 3.78814L15.3837 3.79493C15.384 3.79413 15.3787 3.80776 15.372 3.82566C15.3651 3.84396 15.3561 3.86861 15.3456 3.89859C15.3248 3.95831 15.2979 4.04018 15.2713 4.13596C15.22 4.32067 15.1612 4.58552 15.1612 4.85198C15.1612 6.37117 16.3347 7.65493 17.837 7.65493H17.914C18.0068 7.65493 18.2326 7.74158 18.3195 8.22793L18.3197 8.22908L11.7232 18.5771M12.1024 18.2512C12.1025 18.2514 12.1027 18.2516 12.1029 18.2518L11.7232 18.5771M12.1024 18.2512C12.1022 18.251 12.1019 18.2507 12.1017 18.2505L11.7232 18.5771M12.1024 18.2512C12.233 18.4022 12.4432 18.5 12.659 18.5C12.7473 18.5 12.8285 18.4833 12.903 18.4524M11.7232 18.5771C11.9509 18.8411 12.3008 19 12.659 19C12.8263 19 12.9847 18.9649 13.1298 18.899M12.903 18.4524L12.8779 18.4671L13.1298 18.899M12.903 18.4524L15.1532 17.1401M12.903 18.4524C12.9096 18.4497 12.9163 18.4468 12.9228 18.4438L13.1298 18.899M13.1298 18.899L15.1532 17.1401M11.7665 1.42231C12.1023 1.05202 12.7188 0.919712 13.1692 1.12643L13.2023 1.14357L11.7665 1.42231ZM11.7665 1.42231C11.5234 1.6876 10.6855 2.44402 10.0461 2.44402C9.39845 2.44402 8.55868 1.67243 8.3144 1.40211L11.7665 1.42231ZM15.1532 17.1401L15.1387 17.1499L15.4201 17.5632L15.231 17.239L15.4538 17.5403L15.1724 17.127L15.1632 17.1333C15.1612 17.1348 15.1593 17.1362 15.1573 17.1377L15.1532 17.1401Z" stroke="#ffffff"/>
<circle id="Ellipse 42" cx="10" cy="10" r="2.5" stroke="#ffffff"/>
</g>
</g>
</svg>
