<svg width="20" height="20" viewBox="0 0 20 20" fill="none" xmlns="http://www.w3.org/2000/svg">
<g id="16*16/&#229;&#161;&#171;&#229;&#133;&#133;/&#229;&#143;&#176;&#232;&#180;&#166;">
<g id="Group 427318524">
<g id="Subtract">
<mask id="path-1-inside-1_2964_226735" fill="white">
<path fill-rule="evenodd" clip-rule="evenodd" d="M10 15.1223C11.1046 15.1223 12 14.2102 12 13.085C12 13.0565 11.9994 13.0282 11.9983 13H17C18.1046 13 19 13.8954 19 15V17C19 18.1046 18.1046 19 17 19H3C1.89543 19 1 18.1046 1 17V15C1 13.8954 1.89543 13 3 13H8.00171C8.00057 13.0282 8 13.0565 8 13.085C8 14.2102 8.89543 15.1223 10 15.1223Z"/>
</mask>
<path d="M11.9983 13V12H10.9572L10.9991 13.0403L11.9983 13ZM8.00171 13L9.0009 13.0403L9.04282 12H8.00171V13ZM11 13.085C11 13.6754 10.535 14.1223 10 14.1223V16.1223C11.6742 16.1223 13 14.745 13 13.085H11ZM10.9991 13.0403C10.9997 13.055 11 13.07 11 13.085H13C13 13.0431 12.9992 13.0014 12.9975 12.9597L10.9991 13.0403ZM11.9983 14H17V12H11.9983V14ZM17 14C17.5523 14 18 14.4477 18 15H20C20 13.3431 18.6569 12 17 12V14ZM18 15V17H20V15H18ZM18 17C18 17.5523 17.5523 18 17 18V20C18.6569 20 20 18.6569 20 17H18ZM17 18H3V20H17V18ZM3 18C2.44772 18 2 17.5523 2 17H0C0 18.6569 1.34315 20 3 20V18ZM2 17V15H0V17H2ZM2 15C2 14.4477 2.44772 14 3 14V12C1.34315 12 0 13.3431 0 15H2ZM3 14H8.00171V12H3V14ZM9 13.085C9 13.07 9.0003 13.0551 9.0009 13.0403L7.00252 12.9597C7.00084 13.0013 7 13.0431 7 13.085H9ZM10 14.1223C9.46505 14.1223 9 13.6754 9 13.085H7C7 14.745 8.32581 16.1223 10 16.1223V14.1223Z" fill="#ffffff" mask="url(#path-1-inside-1_2964_226735)"/>
</g>
<path id="Rectangle 826" d="M16 13.5V3.5C16 2.39543 15.1046 1.5 14 1.5H6C4.89543 1.5 4 2.39543 4 3.5V13.5" stroke="#ffffff"/>
<path id="Vector 27" d="M8.4127 5L10.0521 7.22214M10.0521 7.22214L11.5873 5M10.0521 7.22214V11M8 7.35145H12M8 9.43114H12" stroke="#ffffff" stroke-linecap="round" stroke-linejoin="round"/>
</g>
</g>
</svg>
